<svg xmlns="http://www.w3.org/2000/svg" viewBox="0 0 712 304"><defs><style>.cls-1{opacity:0.27;}.cls-2{fill:#a6bb8d;}.cls-3{fill:#61876e;}</style></defs><title>Asset 1</title><g id="Layer_2" data-name="Layer 2"><g id="Layer_1-2" data-name="Layer 1"><g class="cls-1"><ellipse class="cls-2" cx="356" cy="209.5" rx="356" ry="94.5"/></g><circle class="cls-3" cx="173.5" cy="38.5" r="33.5"/><circle class="cls-3" cx="253.5" cy="38.5" r="33.5"/><circle class="cls-3" cx="173.5" cy="198.5" r="33.5"/><circle class="cls-3" cx="253.5" cy="198.5" r="33.5"/><circle class="cls-3" cx="173.5" cy="118.5" r="33.5"/><circle class="cls-3" cx="253.5" cy="118.5" r="33.5"/><circle class="cls-2" cx="168.5" cy="33.5" r="33.5"/><circle class="cls-2" cx="248.5" cy="33.5" r="33.5"/><circle class="cls-2" cx="168.5" cy="193.5" r="33.5"/><circle class="cls-2" cx="248.5" cy="193.5" r="33.5"/><circle class="cls-2" cx="168.5" cy="113.5" r="33.5"/><circle class="cls-2" cx="248.5" cy="113.5" r="33.5"/><path class="cls-2" d="M381.92,33.54l-6.13,13.07c-1-.57-2.05-1.11-3.12-1.61a48.53,48.53,0,0,0-69.12,42.47A48.48,48.48,0,0,1,367.33,64.6L362,75.87l23.3-2,1.68-.14,7.21-.61,14.41-1.22Z"/><path class="cls-3" d="M442.15,185.35l-13.28,48.88H384.22L442.43,43.78h56.23L558,234.23H511.66L497,185.35Zm48.32-32.21L478.6,112.73c-3.11-11.3-6.5-25.72-9.33-36.74h-.84c-2.55,11.31-5.66,25.72-8.48,36.74l-11.59,40.41Z"/><path class="cls-2" d="M437.15,180.35l-13.28,48.88H379.22L437.43,38.78h56.23L553,229.23H506.66L492,180.35Zm48.32-32.21L473.6,107.73C470.49,96.43,467.1,82,464.27,71h-.84c-2.55,11.31-5.66,25.72-8.48,36.74l-11.59,40.41Z"/></g></g></svg>