<svg xmlns="http://www.w3.org/2000/svg" viewBox="0 0 164.08 72"><defs><style>.cls-1{fill:none;stroke:#a6bb8d;stroke-miterlimit:10;}.cls-2{fill:#a6bb8d;}</style></defs><title>Asset 2</title><g id="Layer_2" data-name="Layer 2"><g id="Layer_1-2" data-name="Layer 1"><path class="cls-1" d="M117.54,36A35.5,35.5,0,0,1,83.06,71.49H81a35.5,35.5,0,0,1,0-71h2A35.5,35.5,0,0,1,117.54,36Z"/><path class="cls-1" d="M163.4,36A110.65,110.65,0,0,1,83.06,71.49H81A110.65,110.65,0,0,1,.68,36,110.65,110.65,0,0,1,81,.51h2A110.65,110.65,0,0,1,163.4,36Z"/><path class="cls-1" d="M163.4,36A110.65,110.65,0,0,1,83.06,71.49H81A110.65,110.65,0,0,1,.68,36,110.65,110.65,0,0,1,81,.51h2A110.65,110.65,0,0,1,163.4,36Z"/><circle class="cls-2" cx="71.11" cy="16" r="9.25"/><circle class="cls-2" cx="92.97" cy="16" r="9.25"/><circle class="cls-2" cx="71.11" cy="36" r="9.25"/><circle class="cls-2" cx="92.97" cy="36" r="9.25"/><circle class="cls-2" cx="71.11" cy="56" r="9.25"/><circle class="cls-2" cx="92.97" cy="56" r="9.25"/></g></g></svg>